<svg xmlns="http://www.w3.org/2000/svg" viewBox="0 0 512 512" width="512" height="512" role="img" aria-label="Instant Coffee">
  <title>Instant Coffee</title>
  <defs>
    <linearGradient id="gRing" x1="80" y1="80" x2="430" y2="430" gradientUnits="userSpaceOnUse">
      <stop offset="0" stop-color="#f2d39a"/>
      <stop offset="0.42" stop-color="#c98a4d"/>
      <stop offset="1" stop-color="#4a2a12"/>
    </linearGradient>
    <linearGradient id="gPin" x1="220" y1="140" x2="310" y2="360" gradientUnits="userSpaceOnUse">
      <stop offset="0" stop-color="#e6c18a"/>
      <stop offset="0.55" stop-color="#b97840"/>
      <stop offset="1" stop-color="#3d1f0f"/>
    </linearGradient>
    <linearGradient id="gHandle" x1="310" y1="320" x2="475" y2="495" gradientUnits="userSpaceOnUse">
      <stop offset="0" stop-color="#e1b77c"/>
      <stop offset="0.5" stop-color="#8a552a"/>
      <stop offset="1" stop-color="#2c1409"/>
    </linearGradient>
    <filter id="softShadow" x="-20%" y="-20%" width="140%" height="140%">
      <feGaussianBlur in="SourceAlpha" stdDeviation="6" result="b"/>
      <feOffset dx="0" dy="4" result="o"/>
      <feColorMatrix in="o" type="matrix" values="
        0 0 0 0 0
        0 0 0 0 0
        0 0 0 0 0
        0 0 0 .35 0" result="s"/>
      <feMerge>
        <feMergeNode in="s"/>
        <feMergeNode in="SourceGraphic"/>
      </feMerge>
    </filter>
  </defs>

  <!-- Transparent background by default -->

  <!-- Lens ring -->
  <g filter="url(#softShadow)">
    <circle cx="230" cy="235" r="170" fill="none" stroke="url(#gRing)" stroke-width="44" stroke-linecap="round"/>
    <circle cx="230" cy="235" r="130" fill="none" stroke="url(#gRing)" stroke-width="14" opacity="0.55"/>
  </g>

  <!-- Handle -->
  <g transform="rotate(40 340 360)" filter="url(#softShadow)">
    <rect x="330" y="330" width="170" height="56" rx="28" fill="url(#gHandle)"/>
    <rect x="342" y="342" width="146" height="32" rx="16" fill="#ffffff" opacity="0.08"/>
  </g>

  <!-- Pin + profile silhouette -->
  <g filter="url(#softShadow)">
    <path d="M230 132c-66 0-120 54-120 120 0 102 120 206 120 206s120-104 120-206c0-66-54-120-120-120z" fill="url(#gPin)"/>
    <path d="M230 420c-20-20-76-84-92-142-6-20-6-45 2-68 16-46 59-78 110-78 51 0 94 32 110 78 8 23 8 48 2 68-16 58-72 122-92 142-20 20-40 20-40 0z" fill="#000" opacity="0.06"/>

    <!-- avatar -->
    <circle cx="230" cy="220" r="44" fill="#fff" opacity="0.92"/>
    <path d="M164 312c20-32 52-52 66-52s46 20 66 52c6 10-2 20-14 20H178c-12 0-20-10-14-20z" fill="#fff" opacity="0.92"/>
  </g>

  <!-- Tiny network nodes (top-right) -->
  <g fill="url(#gRing)" stroke="url(#gRing)" stroke-width="10" stroke-linecap="round" stroke-linejoin="round" filter="url(#softShadow)">
    <path d="M360 120 L408 148 L444 118" fill="none"/>
    <circle cx="360" cy="120" r="18"/>
    <circle cx="408" cy="148" r="14"/>
    <circle cx="444" cy="118" r="12"/>
  </g>
</svg>
